<svg enable-background="new 0 0 512 512" height="512" viewBox="0 0 512 512" width="512" xmlns="http://www.w3.org/2000/svg"><g id="_x30_5_Donation"><g><path d="m499.419 287.748c-17.647-14.129-43.506-15.129-62.214-.952l-49.906 37.419c-2.771-14.693-16.108-25.487-31.222-24.726l-62.801 2.644c-6.09.239-11.769-2.497-15.354-7.351-21.172-28.672-61.489-36.423-91.791-17.654l-38.346 23.761-1.573-3.269c-4.024-8.36-14.064-11.875-22.424-7.851l-109.785 52.847c-8.36 4.024-11.874 14.063-7.85 22.423l46.883 97.401c4.024 8.36 14.063 11.875 22.423 7.851l109.784-52.847c8.36-4.024 11.875-14.063 7.851-22.423l-.057-.119c8.971-3.093 19.098-1.942 27.279 3.797 15.653 8.796 38.665 36.276 81.252 32.352 20.827-1.96 42.133-6.142 63.315-12.425 25.326-7.455 31.363-19.155 134.259-96.915 11.041-8.526 11.188-25.189.277-33.963zm-9.948 21.468c-106.868 81.111-108.359 88.159-129.069 94.258-20.215 5.998-40.508 9.982-60.306 11.844-35.535 3.332-53.203-19.567-70.707-29.554-12.988-9.106-29.212-10.739-43.271-5.234l-31.443-65.323 39.777-24.648c23.363-14.47 54.437-8.492 70.753 13.611 6.708 9.084 17.52 14.212 28.733 13.749l62.806-2.644c8.351-.337 15.303 6.3 15.303 14.673 0 7.291-5.447 13.544-12.674 14.544l-85.423 11.833c-4.321.599-7.34 4.588-6.738 8.912.597 4.321 4.552 7.358 8.909 6.741l85.423-11.833c8.212-1.137 15.232-5.611 19.981-11.853l65.19-48.875c12.928-9.799 30.783-8.979 42.812.653 2.902 2.338 2.942 6.829-.056 9.146z"/><path d="m309.556 247.009c2.737 1.886 6.302 1.831 8.961 0 1.594-1.098 17.01-11.864 35.346-28.97 7.413 7.59 14.641 13.697 19.6 17.603 3.817 3.007 9.154 3.007 12.971 0 13.804-10.875 45.171-38.601 49.267-68.843 2.117-15.633-6.74-30.853-20.937-35.441 3.167-9.921 5.045-20.124 5.045-30.483 0-55.273-68.674-81.898-105.772-41.009-37.005-40.796-105.767-14.445-105.767 41.009-.001 75.504 97.15 143.284 101.286 146.134zm-2.232-169.9c1.44 2.32 3.981 3.732 6.713 3.732 2.731 0 5.267-1.412 6.713-3.732 23.715-38.168 83.258-21.496 83.258 23.767 0 10.137-2.164 20.224-5.782 30.058-7.682 1.964-14.209 6.804-18.277 13.356-5.659-9.114-16.038-15.012-27.733-14.29-18.229 1.124-30.47 18.701-28.019 36.799 1.917 14.159 9.832 27.74 19.104 39.325-12.365 11.578-23.385 20.208-29.263 24.608-18.765-14.048-89.965-71.221-89.965-129.856-.002-45.248 59.537-61.958 83.251-23.767z"/></g></g></svg>